<svg id="visual" viewBox="0 0 900 600" width="900" height="600" xmlns="http://www.w3.org/2000/svg" xmlns:xlink="http://www.w3.org/1999/xlink" version="1.1"><rect x="0" y="0" width="900" height="600" fill="#001220"></rect><defs><linearGradient id="grad1_0" x1="33.3%" y1="0%" x2="100%" y2="100%"><stop offset="20%" stop-color="#888277" stop-opacity="1"></stop><stop offset="80%" stop-color="#888277" stop-opacity="1"></stop></linearGradient></defs><defs><linearGradient id="grad1_1" x1="33.3%" y1="0%" x2="100%" y2="100%"><stop offset="20%" stop-color="#888277" stop-opacity="1"></stop><stop offset="80%" stop-color="#001220" stop-opacity="1"></stop></linearGradient></defs><defs><linearGradient id="grad2_0" x1="0%" y1="0%" x2="66.7%" y2="100%"><stop offset="20%" stop-color="#888277" stop-opacity="1"></stop><stop offset="80%" stop-color="#888277" stop-opacity="1"></stop></linearGradient></defs><defs><linearGradient id="grad2_1" x1="0%" y1="0%" x2="66.7%" y2="100%"><stop offset="20%" stop-color="#001220" stop-opacity="1"></stop><stop offset="80%" stop-color="#888277" stop-opacity="1"></stop></linearGradient></defs><g transform="translate(900, 0)"><path d="M0 351.5C-46.3 346.5 -92.5 341.4 -134.5 324.8C-176.5 308.1 -214.2 279.8 -246.8 246.8C-279.3 213.7 -306.8 175.9 -323.4 133.9C-340 92 -345.8 46 -351.5 0L0 0Z" fill="#364a45"></path><path d="M0 175.8C-23.1 173.2 -46.3 170.7 -67.3 162.4C-88.3 154.1 -107.1 139.9 -123.4 123.4C-139.7 106.9 -153.4 87.9 -161.7 67C-170 46 -172.9 23 -175.8 0L0 0Z" fill="#888277"></path></g><g transform="translate(0, 600)"><path d="M0 -351.5C34.5 -321.2 69 -290.8 115.6 -279C162.1 -267.3 220.7 -274.1 248.6 -248.6C276.4 -223 273.4 -165.1 285.5 -118.2C297.5 -71.4 324.5 -35.7 351.5 0L0 0Z" fill="#364a45"></path><path d="M0 -175.8C17.3 -160.6 34.5 -145.4 57.8 -139.5C81.1 -133.6 110.4 -137.1 124.3 -124.3C138.2 -111.5 136.7 -82.5 142.7 -59.1C148.8 -35.7 162.3 -17.9 175.8 0L0 0Z" fill="#888277"></path></g></svg>